<?xml version="1.0" standalone="no"?>
<!DOCTYPE svg PUBLIC "-//W3C//DTD SVG 20010904//EN"
 "http://www.w3.org/TR/2001/REC-SVG-20010904/DTD/svg10.dtd">
<svg version="1.0" xmlns="http://www.w3.org/2000/svg"
 width="476.000000pt" height="365.000000pt" viewBox="0 0 476.000000 365.000000"
 preserveAspectRatio="xMidYMid meet">

<g transform="translate(0.000000,365.000000) scale(0.100000,-0.100000)"
fill="#ef4444" stroke="none">
<path d="M2920 3598 c0 -7 6 -47 14 -88 8 -41 16 -99 18 -129 l3 -54 -87 -17
c-127 -26 -216 -57 -425 -147 -10 -4 -13 23 -13 117 0 68 -5 140 -11 161 -16
50 -62 105 -110 130 -38 19 -56 19 -532 17 l-494 -3 -40 -28 c-22 -15 -50 -46
-64 -70 l-24 -42 -5 -485 -5 -485 -470 0 c-515 0 -507 1 -568 -61 -64 -64 -62
-43 -65 -567 -2 -331 1 -490 9 -520 15 -58 90 -130 152 -145 31 -8 187 -12
496 -12 l451 0 0 -487 c0 -453 2 -491 19 -529 22 -48 82 -101 131 -114 20 -6
224 -10 486 -10 499 0 507 1 573 63 66 63 71 85 71 340 0 125 2 227 5 227 3 0
35 -15 72 -34 222 -112 455 -176 643 -176 164 0 382 50 547 126 289 131 548
406 673 715 18 45 30 59 64 78 98 51 209 197 248 325 25 84 21 202 -11 286
-29 78 -98 153 -166 181 -38 15 -57 30 -60 43 -40 199 -63 273 -128 401 -158
316 -427 548 -775 670 -59 20 -80 36 -168 122 -146 142 -239 192 -391 208 -50
6 -63 4 -63 -7z m867 -691 c239 -164 436 -506 450 -785 8 -133 19 -151 88
-135 59 13 102 3 137 -34 54 -57 63 -149 25 -244 -44 -106 -98 -159 -202 -194
-67 -23 -59 -13 -139 -187 -86 -189 -186 -319 -325 -424 -236 -178 -557 -266
-818 -224 -149 24 -355 104 -475 183 -168 112 -316 289 -427 511 l-46 91 -82
6 c-93 7 -148 33 -203 96 -121 137 -109 367 22 434 34 17 53 20 107 16 36 -3
75 -8 86 -11 11 -3 26 -2 33 2 7 5 21 60 32 123 24 141 66 289 88 310 9 9 97
69 195 133 141 92 179 112 184 100 3 -9 3 -56 0 -105 l-6 -89 82 42 c45 22
169 88 275 145 107 58 196 102 199 99 7 -7 -98 -194 -154 -275 l-44 -64 63 7
c120 12 254 60 393 141 129 75 309 277 340 382 8 27 14 25 122 -50z"/>
<path d="M2661 1993 c-130 -64 -69 -267 76 -250 58 6 91 30 114 83 16 36 18
50 10 82 -23 85 -118 125 -200 85z"/>
<path d="M3561 1993 c-50 -26 -74 -64 -74 -117 0 -140 179 -185 253 -64 25 42
25 84 0 125 -39 65 -117 89 -179 56z"/>
<path d="M3463 1339 c-32 -29 -83 -63 -113 -78 -48 -23 -67 -26 -160 -26 -95
0 -111 3 -162 28 -31 15 -79 48 -106 72 -58 52 -101 60 -126 23 -28 -40 -20
-75 31 -129 95 -102 301 -167 448 -142 100 17 186 62 261 137 71 71 82 108 44
146 -31 31 -54 24 -117 -31z"/>
</g>
</svg>
