<?xml version="1.0" standalone="no"?>
<!DOCTYPE svg PUBLIC "-//W3C//DTD SVG 20010904//EN"
 "http://www.w3.org/TR/2001/REC-SVG-20010904/DTD/svg10.dtd">
<svg version="1.0" xmlns="http://www.w3.org/2000/svg"
 width="1536.000000pt" height="1024.000000pt" viewBox="0 0 1536.000000 1024.000000"
 preserveAspectRatio="xMidYMid meet">
<defs>
<linearGradient id="grad1" x1="0%" y1="0%" x2="0%" y2="100%">
<stop offset="0%" style="stop-color:#27C3DD;stop-opacity:1" />
<stop offset="100%" style="stop-color:#009EF0;stop-opacity:1" />
</linearGradient>
</defs>
<g transform="translate(0.000000,1024.000000) scale(0.100000,-0.100000)"
fill="url(#grad1)" stroke="none">
<path d="M7913 7333 c9 -2 25 -2 35 0 9 3 1 5 -18 5 -19 0 -27 -2 -17 -5z"/>
<path d="M7988 7333 c6 -2 18 -2 25 0 6 3 1 5 -13 5 -14 0 -19 -2 -12 -5z"/>
<path d="M7828 7323 c7 -3 16 -2 19 1 4 3 -2 6 -13 5 -11 0 -14 -3 -6 -6z"/>
<path d="M7434 7138 l-19 -23 23 19 c21 18 27 26 19 26 -2 0 -12 -10 -23 -22z"/>
<path d="M8310 6895 c13 -14 26 -25 28 -25 3 0 -5 11 -18 25 -13 14 -26 25
-28 25 -3 0 5 -11 18 -25z"/>
<path d="M9722 6700 c0 -14 2 -19 5 -12 2 6 2 18 0 25 -3 6 -5 1 -5 -13z"/>
<path d="M9722 6515 c0 -16 2 -22 5 -12 2 9 2 23 0 30 -3 6 -5 -1 -5 -18z"/>
<path d="M8481 6504 c0 -11 3 -14 6 -6 3 7 2 16 -1 19 -3 4 -6 -2 -5 -13z"/>
<path d="M8492 6425 c0 -16 2 -22 5 -12 2 9 2 23 0 30 -3 6 -5 -1 -5 -18z"/>
<path d="M7138 6403 c6 -2 18 -2 25 0 6 3 1 5 -13 5 -14 0 -19 -2 -12 -5z"/>
<path d="M9701 6394 c0 -11 3 -14 6 -6 3 7 2 16 -1 19 -3 4 -6 -2 -5 -13z"/>
<path d="M6998 6393 c7 -3 16 -2 19 1 4 3 -2 6 -13 5 -11 0 -14 -3 -6 -6z"/>
<path d="M9666 6285 c-9 -26 -7 -32 5 -12 6 10 9 21 6 23 -2 3 -7 -2 -11 -11z"/>
<path d="M8492 6265 c0 -16 2 -22 5 -12 2 9 2 23 0 30 -3 6 -5 -1 -5 -18z"/>
<path d="M4664 6218 l-19 -23 23 19 c21 18 27 26 19 26 -2 0 -12 -10 -23 -22z"/>
<path d="M8481 6204 c0 -11 3 -14 6 -6 3 7 2 16 -1 19 -3 4 -6 -2 -5 -13z"/>
<path d="M10620 6197 c0 -2 15 -16 33 -33 l32 -29 -29 33 c-28 30 -36 37 -36
29z"/>
<path d="M9605 6159 c-4 -6 -5 -12 -2 -15 2 -3 7 2 10 11 7 17 1 20 -8 4z"/>
<path d="M9579 6113 c-13 -16 -12 -17 4 -4 16 13 21 21 13 21 -2 0 -10 -8 -17
-17z"/>
<path d="M9539 6063 l-24 -28 28 24 c15 14 27 26 27 28 0 8 -8 1 -31 -24z"/>
<path d="M8855 6050 c10 -11 20 -20 23 -20 3 0 -3 9 -13 20 -10 11 -20 20 -23
20 -3 0 3 -9 13 -20z"/>
<path d="M6789 6023 l-24 -28 28 24 c15 14 27 26 27 28 0 8 -8 1 -31 -24z"/>
<path d="M7375 6030 c10 -11 20 -20 23 -20 3 0 -3 9 -13 20 -10 11 -20 20 -23
20 -3 0 3 -9 13 -20z"/>
<path d="M8395 5984 c-9 -15 -12 -23 -6 -20 11 7 35 46 28 46 -3 0 -12 -12
-22 -26z"/>
<path d="M9464 5988 l-19 -23 23 19 c21 18 27 26 19 26 -2 0 -12 -10 -23 -22z"/>
<path d="M7410 5997 c0 -2 15 -16 33 -33 l32 -29 -29 33 c-28 30 -36 37 -36
29z"/>
<path d="M7670 5986 c0 -2 8 -10 18 -17 15 -13 16 -12 3 4 -13 16 -21 21 -21
13z"/>
<path d="M8335 5908 l-40 -43 43 40 c39 36 47 45 39 45 -2 0 -21 -19 -42 -42z"/>
<path d="M8997 5929 c7 -7 15 -10 18 -7 3 3 -2 9 -12 12 -14 6 -15 5 -6 -5z"/>
<path d="M7745 5910 c10 -11 20 -20 23 -20 3 0 -3 9 -13 20 -10 11 -20 20 -23
20 -3 0 3 -9 13 -20z"/>
<path d="M10782 5895 c0 -16 2 -22 5 -12 2 9 2 23 0 30 -3 6 -5 -1 -5 -18z"/>
<path d="M4562 5890 c0 -14 2 -19 5 -12 2 6 2 18 0 25 -3 6 -5 1 -5 -13z"/>
<path d="M9268 5893 c6 -2 18 -2 25 0 6 3 1 5 -13 5 -14 0 -19 -2 -12 -5z"/>
<path d="M9163 5883 c15 -2 37 -2 50 0 12 2 0 4 -28 4 -27 0 -38 -2 -22 -4z"/>
<path d="M4562 5830 c0 -19 2 -27 5 -17 2 9 2 25 0 35 -3 9 -5 1 -5 -18z"/>
<path d="M7968 5793 c7 -3 16 -2 19 1 4 3 -2 6 -13 5 -11 0 -14 -3 -6 -6z"/>
<path d="M8118 5793 c7 -3 16 -2 19 1 4 3 -2 6 -13 5 -11 0 -14 -3 -6 -6z"/>
<path d="M4562 5735 c0 -16 2 -22 5 -12 2 9 2 23 0 30 -3 6 -5 -1 -5 -18z"/>
<path d="M6402 5730 c0 -19 2 -27 5 -17 2 9 2 25 0 35 -3 9 -5 1 -5 -18z"/>
<path d="M10782 5730 c0 -14 2 -19 5 -12 2 6 2 18 0 25 -3 6 -5 1 -5 -13z"/>
<path d="M4565 5160 c0 -300 1 -422 2 -272 2 149 2 395 0 545 -1 149 -2 27 -2
-273z"/>
<path d="M10771 5684 c0 -11 3 -14 6 -6 3 7 2 16 -1 19 -3 4 -6 -2 -5 -13z"/>
<path d="M6402 5610 c0 -14 2 -19 5 -12 2 6 2 18 0 25 -3 6 -5 1 -5 -13z"/>
<path d="M10736 5585 c-9 -26 -7 -32 5 -12 6 10 9 21 6 23 -2 3 -7 -2 -11 -11z"/>
<path d="M7632 5570 c0 -14 2 -19 5 -12 2 6 2 18 0 25 -3 6 -5 1 -5 -13z"/>
<path d="M10695 5500 c-9 -16 -13 -30 -11 -30 3 0 12 14 21 30 9 17 13 30 11
30 -3 0 -12 -13 -21 -30z"/>
<path d="M7643 5475 c0 -27 2 -38 4 -22 2 15 2 37 0 50 -2 12 -4 0 -4 -28z"/>
<path d="M9250 5406 c0 -2 8 -10 18 -17 15 -13 16 -12 3 4 -13 16 -21 21 -21
13z"/>
<path d="M7631 5384 c0 -11 3 -14 6 -6 3 7 2 16 -1 19 -3 4 -6 -2 -5 -13z"/>
<path d="M10556 5312 c-52 -56 -61 -69 -27 -37 47 45 118 126 109 125 -1 -1
-39 -40 -82 -88z"/>
<path d="M7621 5344 c0 -11 3 -14 6 -6 3 7 2 16 -1 19 -3 4 -6 -2 -5 -13z"/>
<path d="M6875 5270 c27 -27 51 -50 54 -50 3 0 -17 23 -44 50 -27 28 -51 50
-54 50 -3 0 17 -22 44 -50z"/>
<path d="M9415 5260 c27 -27 51 -50 54 -50 3 0 -17 23 -44 50 -27 28 -51 50
-54 50 -3 0 17 -22 44 -50z"/>
<path d="M7909 5233 c-13 -16 -12 -17 4 -4 9 7 17 15 17 17 0 8 -8 3 -21 -13z"/>
<path d="M9775 5200 c21 -22 41 -40 44 -40 3 0 -13 18 -34 40 -21 22 -41 40
-44 40 -3 0 13 -18 34 -40z"/>
<path d="M7525 5188 l-40 -43 43 40 c23 21 42 40 42 42 0 8 -9 0 -45 -39z"/>
<path d="M10449 5213 c-13 -16 -12 -17 4 -4 9 7 17 15 17 17 0 8 -8 3 -21 -13z"/>
<path d="M10394 5174 c-18 -14 -18 -15 4 -4 12 6 22 13 22 15 0 8 -5 6 -26
-11z"/>
<path d="M6560 5166 c0 -2 8 -10 18 -17 15 -13 16 -12 3 4 -13 16 -21 21 -21
13z"/>
<path d="M10330 5140 c-19 -11 -31 -19 -27 -20 11 0 67 29 67 35 0 7 -1 7 -40
-15z"/>
<path d="M6615 5100 c10 -11 20 -20 23 -20 3 0 -3 9 -13 20 -10 11 -20 20 -23
20 -3 0 3 -9 13 -20z"/>
<path d="M9550 5116 c0 -2 8 -10 18 -17 15 -13 16 -12 3 4 -13 16 -21 21 -21
13z"/>
<path d="M7358 5093 c7 -3 16 -2 19 1 4 3 -2 6 -13 5 -11 0 -14 -3 -6 -6z"/>
<path d="M7238 5083 c17 -2 47 -2 65 0 17 2 3 4 -33 4 -36 0 -50 -2 -32 -4z"/>
<path d="M10178 5083 c7 -3 16 -2 19 1 4 3 -2 6 -13 5 -11 0 -14 -3 -6 -6z"/>
<path d="M10063 5073 c15 -2 39 -2 55 0 15 2 2 4 -28 4 -30 0 -43 -2 -27 -4z"/>
<path d="M7719 5043 l-24 -28 28 24 c15 14 27 26 27 28 0 8 -8 1 -31 -24z"/>
<path d="M9600 5056 c0 -2 8 -10 18 -17 15 -13 16 -12 3 4 -13 16 -21 21 -21
13z"/>
<path d="M6710 5005 c13 -14 26 -25 28 -25 3 0 -5 11 -18 25 -13 14 -26 25
-28 25 -3 0 5 -11 18 -25z"/>
<path d="M6887 4889 c7 -7 15 -10 18 -7 3 3 -2 9 -12 12 -14 6 -15 5 -6 -5z"/>
<path d="M7145 4800 c3 -5 8 -10 11 -10 2 0 4 5 4 10 0 6 -5 10 -11 10 -5 0
-7 -4 -4 -10z"/>
<path d="M9830 4730 c6 -11 13 -20 16 -20 2 0 0 9 -6 20 -6 11 -13 20 -16 20
-2 0 0 -9 6 -20z"/>
<path d="M7056 4595 c-9 -26 -7 -32 5 -12 6 10 9 21 6 23 -2 3 -7 -2 -11 -11z"/>
<path d="M9901 4595 c0 -5 6 -21 14 -35 8 -14 14 -20 14 -15 0 6 -6 21 -14 35
-8 14 -14 21 -14 15z"/>
<path d="M4571 4574 c0 -11 3 -14 6 -6 3 7 2 16 -1 19 -3 4 -6 -2 -5 -13z"/>
<path d="M7031 4514 c0 -11 3 -14 6 -6 3 7 2 16 -1 19 -3 4 -6 -2 -5 -13z"/>
<path d="M4590 4514 c0 -6 7 -19 16 -30 14 -18 14 -18 3 6 -14 31 -19 36 -19
24z"/>
<path d="M9940 4495 c0 -5 5 -17 10 -25 5 -8 10 -10 10 -5 0 6 -5 17 -10 25
-5 8 -10 11 -10 5z"/>
<path d="M7022 4465 c0 -16 2 -22 5 -12 2 9 2 23 0 30 -3 6 -5 -1 -5 -18z"/>
<path d="M9961 4434 c0 -11 3 -14 6 -6 3 7 2 16 -1 19 -3 4 -6 -2 -5 -13z"/>
<path d="M9876 4356 c6 -70 4 -90 -7 -97 -8 -5 -9 -9 -3 -9 6 0 11 -7 11 -15
0 -8 -4 -15 -9 -15 -4 0 -8 -9 -8 -19 0 -27 -11 -52 -20 -46 -5 3 -6 14 -3 24
3 10 0 22 -6 25 -7 5 -8 1 -4 -10 5 -13 3 -15 -7 -9 -9 6 -11 4 -5 -4 4 -7 2
-24 -6 -37 -12 -23 -13 -23 -33 -7 -12 10 -15 11 -8 3 17 -20 15 -36 -9 -59
-12 -11 -18 -24 -14 -30 3 -6 4 -11 0 -11 -3 0 -10 10 -15 23 -8 20 -9 18 -11
-13 -1 -19 -1 -39 0 -43 1 -5 -4 -5 -10 -1 -6 3 -16 0 -21 -7 -8 -11 -9 -11
-5 2 4 12 -2 16 -24 15 -21 -1 -29 -6 -27 -17 2 -9 -1 -15 -7 -15 -5 1 -8 7
-7 15 2 7 -1 10 -6 7 -6 -3 -12 -3 -15 1 -2 5 -2 3 -1 -4 2 -7 -1 -15 -6 -18
-16 -10 -11 -28 4 -22 10 4 13 1 10 -7 -3 -8 -19 -12 -45 -10 -21 1 -37 -1
-35 -5 3 -4 1 -13 -5 -21 -5 -9 -9 -10 -9 -3 0 6 -8 10 -17 8 -11 -1 -17 -9
-15 -20 3 -14 1 -15 -11 -4 -8 8 -14 16 -12 19 2 3 -15 4 -37 2 -29 -3 -37 -7
-27 -14 10 -7 8 -8 -7 -3 -13 3 -26 -1 -34 -10 -7 -8 -16 -13 -20 -10 -4 3
-10 -2 -14 -10 -3 -8 -15 -15 -27 -15 -17 0 -19 3 -10 14 8 10 9 16 1 21 -5 3
-13 -1 -16 -9 -3 -9 -15 -16 -26 -16 -13 0 -17 -4 -12 -12 5 -9 3 -9 -9 1 -14
11 -18 11 -22 -1 -3 -8 -12 -15 -20 -15 -8 0 -12 4 -9 8 2 4 0 10 -6 14 -5 3
-10 1 -10 -5 0 -7 -6 -10 -14 -7 -8 3 -20 -1 -27 -9 -11 -14 -13 -14 -21 0 -6
12 -15 13 -33 6 -13 -5 -34 -7 -47 -4 -36 7 -105 14 -83 8 70 -18 158 -54 211
-85 33 -21 82 -44 109 -53 27 -10 56 -21 64 -26 14 -8 14 -9 -1 -10 -10 0 -18
-5 -18 -11 0 -6 7 -9 15 -5 8 3 14 2 14 -2 -3 -19 2 -23 15 -13 10 8 16 9 21
1 9 -15 25 -12 25 4 0 8 5 18 11 22 7 4 9 -2 7 -17 -3 -21 -9 -24 -46 -25 -69
-2 -59 -12 21 -19 63 -6 212 7 225 20 2 2 -1 12 -6 22 -9 16 -5 18 35 20 41 1
43 0 26 -13 -17 -14 -16 -14 5 -4 21 10 26 25 22 64 -1 11 3 16 9 11 6 -3 9
-10 6 -15 -3 -5 0 -12 6 -16 8 -4 7 -9 -2 -15 -7 -4 -11 -10 -9 -12 3 -2 21 7
40 21 19 14 27 22 18 19 -9 -3 -19 -1 -22 6 -2 7 -5 3 -5 -7 -1 -31 -15 -8
-17 29 -2 25 2 36 16 40 10 3 21 13 24 21 3 9 11 12 18 8 7 -4 10 -4 6 1 -4 4
3 22 16 39 82 107 109 200 110 366 1 117 -7 206 -19 218 -3 3 -2 -34 1 -82z
m-115 -329 c-10 -9 -11 -8 -5 6 3 10 9 15 12 12 3 -3 0 -11 -7 -18z m-406
-156 c-3 -6 -11 -11 -16 -11 -5 0 -4 6 3 14 14 16 24 13 13 -3z m42 13 c-3 -3
-12 -4 -19 -1 -8 3 -5 6 6 6 11 1 17 -2 13 -5z m269 -163 c0 -15 -3 -17 -18
-7 -17 10 -17 11 0 18 9 3 17 7 17 7 1 1 1 -7 1 -18z m-36 -30 c3 -2 -4 -1
-14 3 -10 3 -27 4 -37 1 -15 -5 -17 -10 -9 -25 14 -27 12 -34 -5 -20 -14 11
-19 7 -16 -12 1 -10 -51 -10 -65 0 -6 4 -14 14 -17 22 -4 10 -6 8 -6 -7 -1
-13 -5 -23 -11 -23 -15 0 -12 26 5 40 15 13 39 5 30 -11 -4 -5 -2 -9 4 -9 5 0
17 -3 26 -7 15 -5 16 -3 5 17 -8 15 -8 20 -1 16 6 -4 26 4 43 18 32 24 37 24
68 -3z m-260 -21 c0 -5 -2 -10 -4 -10 -3 0 -8 5 -11 10 -3 6 -1 10 4 10 6 0
11 -4 11 -10z"/>
<path d="M4670 4395 c19 -19 36 -35 39 -35 3 0 -10 16 -29 35 -19 19 -36 35
-39 35 -3 0 10 -16 29 -35z"/>
<path d="M7012 4395 c0 -16 2 -22 5 -12 2 9 2 23 0 30 -3 6 -5 -1 -5 -18z"/>
<path d="M7352 4340 c0 -14 2 -19 5 -12 2 6 2 18 0 25 -3 6 -5 1 -5 -13z"/>
<path d="M9992 4310 c0 -14 2 -19 5 -12 2 6 2 18 0 25 -3 6 -5 1 -5 -13z"/>
<path d="M7004 4235 c0 -49 1 -71 3 -48 2 23 2 64 0 90 -2 26 -3 8 -3 -42z"/>
<path d="M4898 4283 c12 -2 30 -2 40 0 9 3 -1 5 -23 4 -22 0 -30 -2 -17 -4z"/>
<path d="M4973 4283 c9 -2 23 -2 30 0 6 3 -1 5 -18 5 -16 0 -22 -2 -12 -5z"/>
<path d="M5053 4283 c9 -2 23 -2 30 0 6 3 -1 5 -18 5 -16 0 -22 -2 -12 -5z"/>
<path d="M5193 4283 c43 -2 110 -2 150 0 40 1 5 3 -78 3 -82 0 -115 -2 -72 -3z"/>
<path d="M5518 4283 c50 -2 134 -2 185 0 50 1 9 3 -93 3 -102 0 -143 -2 -92
-3z"/>
<path d="M5922 4283 c48 -2 129 -2 180 0 51 1 12 3 -87 3 -99 0 -141 -2 -93
-3z"/>
<path d="M6285 3560 c0 -399 1 -562 2 -362 2 199 2 525 0 725 -1 199 -2 36 -2
-363z"/>
<path d="M10003 4225 c0 -27 2 -38 4 -22 2 15 2 37 0 50 -2 12 -4 0 -4 -28z"/>
<path d="M7352 4170 c0 -14 2 -19 5 -12 2 6 2 18 0 25 -3 6 -5 1 -5 -13z"/>
<path d="M10003 4125 c0 -27 2 -38 4 -22 2 15 2 37 0 50 -2 12 -4 0 -4 -28z"/>
<path d="M7012 4095 c0 -16 2 -22 5 -12 2 9 2 23 0 30 -3 6 -5 -1 -5 -18z"/>
<path d="M7362 4090 c0 -14 2 -19 5 -12 2 6 2 18 0 25 -3 6 -5 1 -5 -13z"/>
<path d="M9992 4050 c0 -14 2 -19 5 -12 2 6 2 18 0 25 -3 6 -5 1 -5 -13z"/>
<path d="M9696 4044 c-8 -20 -8 -24 2 -24 4 0 8 9 9 20 2 24 -3 26 -11 4z"/>
<path d="M7021 4034 c0 -11 3 -14 6 -6 3 7 2 16 -1 19 -3 4 -6 -2 -5 -13z"/>
<path d="M9981 4004 c0 -11 3 -14 6 -6 3 7 2 16 -1 19 -3 4 -6 -2 -5 -13z"/>
<path d="M9953 3930 c-12 -28 -19 -50 -17 -50 7 0 46 91 42 96 -2 2 -14 -19
-25 -46z"/>
<path d="M7041 3954 c0 -11 3 -14 6 -6 3 7 2 16 -1 19 -3 4 -6 -2 -5 -13z"/>
<path d="M9889 3863 c-13 -16 -12 -17 4 -4 9 7 17 15 17 17 0 8 -8 3 -21 -13z"/>
<path d="M9891 3828 c-42 -62 -97 -112 -112 -103 -7 5 -10 4 -5 -3 3 -6 -19
-26 -51 -47 -32 -21 -50 -35 -40 -31 59 20 206 148 238 208 18 33 0 19 -30
-24z"/>
<path d="M7470 3836 c0 -2 8 -10 18 -17 15 -13 16 -12 3 4 -13 16 -21 21 -21
13z"/>
<path d="M9805 3800 c-3 -5 -1 -10 4 -10 6 0 11 5 11 10 0 6 -2 10 -4 10 -3 0
-8 -4 -11 -10z"/>
<path d="M7500 3797 c0 -2 24 -24 53 -48 28 -24 46 -36 38 -26 -16 20 -91 81
-91 74z"/>
<path d="M9825 3780 c-3 -5 -11 -7 -18 -4 -8 3 -13 -4 -14 -17 l-2 -21 25 22
c13 13 24 25 24 27 0 7 -9 3 -15 -7z"/>
<path d="M8525 3770 c-13 -6 -15 -9 -5 -9 8 0 22 4 30 9 18 12 2 12 -25 0z"/>
<path d="M8693 3773 c32 -2 81 -2 110 0 29 2 3 3 -58 3 -60 0 -84 -1 -52 -3z"/>
<path d="M8598 3763 c7 -3 16 -2 19 1 4 3 -2 6 -13 5 -11 0 -14 -3 -6 -6z"/>
<path d="M8868 3763 c6 -2 18 -2 25 0 6 3 1 5 -13 5 -14 0 -19 -2 -12 -5z"/>
<path d="M9727 3764 c-3 -5 1 -15 9 -22 16 -14 18 -5 5 17 -5 7 -11 9 -14 5z"/>
<path d="M7130 3740 c6 -11 13 -20 16 -20 2 0 0 9 -6 20 -6 11 -13 20 -16 20
-2 0 0 -9 6 -20z"/>
<path d="M8558 3753 c7 -3 16 -2 19 1 4 3 -2 6 -13 5 -11 0 -14 -3 -6 -6z"/>
<path d="M8472 3733 c-24 -8 -41 -17 -39 -19 2 -2 28 5 58 15 30 11 47 20 39
19 -8 0 -34 -6 -58 -15z"/>
<path d="M8948 3743 c7 -3 16 -2 19 1 4 3 -2 6 -13 5 -11 0 -14 -3 -6 -6z"/>
<path d="M9000 3725 c14 -8 30 -14 35 -14 6 0 -1 6 -15 14 -14 8 -29 14 -35
14 -5 0 1 -6 15 -14z"/>
<path d="M8390 3700 c-8 -5 -10 -10 -5 -10 6 0 17 5 25 10 8 5 11 10 5 10 -5
0 -17 -5 -25 -10z"/>
<path d="M9051 3706 c2 -2 15 -9 29 -15 24 -11 24 -11 6 3 -16 13 -49 24 -35
12z"/>
<path d="M8178 3683 c7 -3 16 -2 19 1 4 3 -2 6 -13 5 -11 0 -14 -3 -6 -6z"/>
<path d="M8265 3655 c-49 -19 -85 -34 -79 -34 14 -1 148 45 171 58 32 18 0 10
-92 -24z"/>
<path d="M7170 3676 c0 -2 8 -10 18 -17 15 -13 16 -12 3 4 -13 16 -21 21 -21
13z"/>
<path d="M7660 3675 c0 -7 61 -37 66 -33 2 3 -12 12 -31 21 -19 9 -35 15 -35
12z"/>
<path d="M9180 3640 c19 -11 42 -19 50 -19 8 0 -5 8 -29 19 -55 25 -67 25 -21
0z"/>
<path d="M7215 3620 c10 -11 20 -20 23 -20 3 0 -3 9 -13 20 -10 11 -20 20 -23
20 -3 0 3 -9 13 -20z"/>
<path d="M7750 3630 c8 -5 22 -9 30 -9 10 0 8 3 -5 9 -27 12 -43 12 -25 0z"/>
<path d="M7868 3623 c6 -2 18 -2 25 0 6 3 1 5 -13 5 -14 0 -19 -2 -12 -5z"/>
<path d="M7808 3613 c7 -3 16 -2 19 1 4 3 -2 6 -13 5 -11 0 -14 -3 -6 -6z"/>
<path d="M8138 3613 c6 -2 18 -2 25 0 6 3 1 5 -13 5 -14 0 -19 -2 -12 -5z"/>
<path d="M9258 3613 c7 -3 16 -2 19 1 4 3 -2 6 -13 5 -11 0 -14 -3 -6 -6z"/>
<path d="M9588 3613 c7 -3 16 -2 19 1 4 3 -2 6 -13 5 -11 0 -14 -3 -6 -6z"/>
<path d="M7853 3603 c9 -2 23 -2 30 0 6 3 -1 5 -18 5 -16 0 -22 -2 -12 -5z"/>
<path d="M8068 3603 c12 -2 30 -2 40 0 9 3 -1 5 -23 4 -22 0 -30 -2 -17 -4z"/>
<path d="M9310 3599 c24 -7 215 -11 195 -4 -5 2 -57 5 -115 8 -58 2 -94 0 -80
-4z"/>
<path d="M9538 3603 c6 -2 18 -2 25 0 6 3 1 5 -13 5 -14 0 -19 -2 -12 -5z"/>
<path d="M7953 3593 c15 -2 39 -2 55 0 15 2 2 4 -28 4 -30 0 -43 -2 -27 -4z"/>
<path d="M7293 3543 c9 -14 87 -77 87 -70 0 3 -21 22 -47 43 -26 21 -44 33
-40 27z"/>
<path d="M7394 3461 c7 -11 46 -35 46 -28 0 3 -12 12 -26 22 -15 9 -23 12 -20
6z"/>
<path d="M8435 3409 c-38 -21 -66 -39 -61 -39 5 0 38 16 73 35 l64 35 -4 -322
c-2 -178 -7 -334 -11 -348 l-7 -25 13 25 c14 29 25 681 11 679 -4 0 -39 -18
-78 -40z"/>
<path d="M7450 3426 c0 -3 9 -10 20 -16 11 -6 20 -8 20 -6 0 3 -9 10 -20 16
-11 6 -20 8 -20 6z"/>
<path d="M7570 3362 c8 -5 26 -13 40 -16 17 -5 20 -4 10 2 -8 5 -26 13 -40 16
-17 5 -20 4 -10 -2z"/>
<path d="M8275 3340 c-13 -6 -15 -9 -5 -9 8 0 22 4 30 9 18 12 2 12 -25 0z"/>
<path d="M8492 3320 c0 -14 2 -19 5 -12 2 6 2 18 0 25 -3 6 -5 1 -5 -13z"/>
<path d="M7678 3323 c7 -3 16 -2 19 1 4 3 -2 6 -13 5 -11 0 -14 -3 -6 -6z"/>
<path d="M7718 3313 c7 -3 16 -2 19 1 4 3 -2 6 -13 5 -11 0 -14 -3 -6 -6z"/>
<path d="M8198 3313 c7 -3 16 -2 19 1 4 3 -2 6 -13 5 -11 0 -14 -3 -6 -6z"/>
<path d="M7758 3303 c7 -3 16 -2 19 1 4 3 -2 6 -13 5 -11 0 -14 -3 -6 -6z"/>
<path d="M8148 3303 c6 -2 18 -2 25 0 6 3 1 5 -13 5 -14 0 -19 -2 -12 -5z"/>
<path d="M7813 3293 c9 -2 25 -2 35 0 9 3 1 5 -18 5 -19 0 -27 -2 -17 -5z"/>
<path d="M8068 3293 c12 -2 32 -2 45 0 12 2 2 4 -23 4 -25 0 -35 -2 -22 -4z"/>
<path d="M7927 3283 c18 -2 50 -2 70 0 21 2 7 4 -32 4 -38 0 -55 -2 -38 -4z"/>
<path d="M8490 3211 c0 -44 -4 -83 -10 -86 -6 -4 -7 1 -3 11 6 15 4 15 -13 -2
-18 -17 -18 -20 -4 -32 13 -12 13 -13 -2 -8 -12 3 -15 1 -11 -10 3 -8 -1 -14
-10 -14 -15 0 -18 -23 -5 -36 4 -3 4 -13 1 -22 -5 -11 -3 -13 7 -7 9 6 11 4 6
-4 -5 -7 -15 -10 -23 -7 -13 5 -14 0 -9 -26 4 -24 3 -29 -4 -18 -5 8 -10 24
-10 34 0 11 -3 17 -6 13 -3 -3 -6 -22 -6 -41 0 -20 -4 -36 -10 -36 -5 0 -6 5
-2 12 4 7 3 8 -4 4 -17 -10 -15 -24 6 -29 13 -4 12 -5 -5 -6 -12 0 -25 -6 -29
-13 -4 -7 -3 -8 4 -4 8 5 12 0 12 -12 0 -11 -7 -23 -16 -26 -13 -5 -14 -9 -5
-20 8 -10 9 -16 1 -21 -6 -3 -7 -12 -4 -18 4 -7 3 -9 -1 -4 -5 4 -10 17 -12
29 -4 26 -22 50 -34 43 -4 -3 -6 -12 -3 -20 4 -10 0 -12 -15 -8 -12 3 -21 1
-21 -6 0 -5 -7 -8 -15 -5 -11 5 -15 -1 -15 -21 0 -17 4 -24 12 -19 7 4 8 3 4
-4 -4 -6 -13 -9 -20 -6 -8 3 -17 0 -22 -7 -4 -7 -3 -10 4 -5 6 3 13 3 16 -2 3
-5 0 -9 -7 -10 -7 0 -21 -2 -32 -4 -13 -2 -19 2 -17 12 2 8 0 11 -4 7 -5 -4
-7 -25 -6 -45 2 -28 0 -33 -7 -22 -9 13 -11 12 -11 -4 0 -11 -3 -16 -7 -13 -3
4 -12 -1 -19 -11 -12 -16 -13 -16 -19 1 -10 24 2 50 20 43 8 -3 17 0 21 6 4 6
3 8 -4 4 -6 -3 -14 -1 -18 5 -5 8 -9 7 -14 -2 -7 -10 -12 -10 -26 2 -16 13
-16 12 -7 -6 12 -23 9 -53 -7 -69 -8 -8 -9 -6 -4 8 7 18 6 18 -18 2 -21 -14
-27 -14 -37 -3 -6 8 -10 16 -8 18 1 2 -3 -1 -9 -8 -6 -7 -14 -10 -17 -6 -4 3
-7 1 -7 -6 0 -7 -5 -9 -10 -6 -6 4 -7 12 -4 18 4 7 3 8 -2 4 -5 -5 -9 -24 -11
-44 -1 -20 -7 -40 -15 -44 -19 -13 -30 -11 -22 4 6 9 5 9 -8 0 -8 -7 -17 -12
-19 -10 -2 1 1 -3 8 -9 7 -6 13 -17 13 -25 -1 -10 -5 -9 -15 5 -7 10 -18 15
-24 12 -5 -4 -13 -1 -17 5 -4 8 -3 9 4 5 7 -4 12 -2 12 3 0 6 -6 11 -12 11
-10 0 -10 2 0 9 10 6 10 10 -3 21 -9 7 -15 9 -14 4 4 -23 -2 -33 -18 -27 -12
5 -14 3 -8 -7 6 -10 4 -12 -8 -7 -10 4 -17 2 -17 -4 0 -6 -9 -9 -20 -6 -21 5
-37 -8 -21 -18 6 -3 7 -13 4 -23 -4 -11 2 -8 16 8 19 22 21 22 12 3 -6 -12 -8
-23 -3 -26 4 -2 2 -3 -4 -1 -6 1 -17 -3 -24 -9 -10 -9 -11 -9 -6 1 4 6 2 12
-3 12 -6 0 -11 -4 -11 -10 0 -5 -5 -10 -11 -10 -6 0 -9 8 -7 18 2 9 10 16 17
14 19 -4 3 16 -22 28 -21 11 -21 10 -3 -4 17 -14 17 -16 3 -22 -9 -3 -14 -11
-10 -17 4 -6 -2 -8 -15 -5 -12 4 -24 2 -27 -2 -9 -15 114 -21 330 -17 227 5
285 14 285 48 0 11 4 18 9 14 5 -3 12 -1 16 5 4 6 11 8 16 4 5 -3 6 -10 3 -16
-4 -7 -2 -8 5 -4 6 4 8 12 5 18 -5 7 -2 9 7 6 17 -7 62 26 51 37 -4 3 -2 6 3
5 27 -6 27 2 0 14 -29 12 -29 13 -7 18 12 3 20 2 16 -3 -3 -5 0 -9 5 -9 6 0
13 0 16 0 3 0 5 3 4 6 0 3 11 14 24 24 35 28 70 115 70 177 0 36 3 50 11 46 6
-4 5 0 -2 9 -10 13 -10 17 0 21 10 4 10 6 1 6 -7 1 -13 13 -13 29 0 21 2 24
10 12 5 -8 10 -10 10 -5 0 6 -6 17 -12 24 -10 11 -10 13 0 7 7 -5 12 -1 12 9
0 9 -4 14 -8 11 -5 -3 -9 1 -9 9 0 8 4 12 9 9 4 -3 8 58 8 135 0 78 -2 141 -5
141 -3 0 -5 -36 -5 -79z m-72 -295 c-7 -8 -15 -12 -17 -11 -5 6 10 25 20 25 5
0 4 -6 -3 -14z m-142 -152 c-5 -13 -10 -14 -18 -6 -6 6 -8 18 -4 28 5 13 10
14 18 6 6 -6 8 -18 4 -28z m-100 -70 c1 -9 0 -13 -4 -10 -3 4 -7 14 -8 22 -1
9 0 13 4 10 3 -4 7 -14 8 -22z m248 7 c3 -5 -2 -15 -12 -22 -15 -12 -16 -12
-5 2 7 9 10 19 6 22 -3 4 -4 7 0 7 3 0 8 -4 11 -9z m-454 -75 c0 -2 -7 -7 -16
-10 -8 -3 -12 -2 -9 4 6 10 25 14 25 6z m70 -10 c0 -2 -7 -7 -16 -10 -8 -3
-12 -2 -9 4 6 10 25 14 25 6z m296 -21 c-3 -20 -16 -31 -16 -13 0 13 8 28 16
28 1 0 1 -7 0 -15z"/>
<path d="M8401 3094 c0 -11 3 -14 6 -6 3 7 2 16 -1 19 -3 4 -6 -2 -5 -13z"/>
<path d="M8397 3051 c6 -7 9 -20 6 -27 -3 -8 0 -14 5 -14 21 0 21 18 -1 36
-12 10 -17 12 -10 5z"/>
<path d="M8309 2913 c-3 -18 3 -59 9 -65 4 -3 13 0 20 8 11 12 10 14 -3 14
-13 0 -20 18 -16 43 0 4 -1 7 -4 7 -3 0 -5 -3 -6 -7z"/>
<path d="M8265 2900 c3 -5 8 -10 11 -10 2 0 4 5 4 10 0 6 -5 10 -11 10 -5 0
-7 -4 -4 -10z"/>
<path d="M6292 2800 c0 -14 2 -19 5 -12 2 6 2 18 0 25 -3 6 -5 1 -5 -13z"/>
<path d="M6301 2754 c0 -11 3 -14 6 -6 3 7 2 16 -1 19 -3 4 -6 -2 -5 -13z"/>
<path d="M8462 2694 c-12 -25 -43 -69 -69 -97 l-47 -52 46 44 c42 40 106 137
96 146 -2 3 -14 -16 -26 -41z"/>
<path d="M6311 2725 c-1 -24 62 -116 105 -154 56 -49 136 -90 190 -97 32 -4
29 -2 -16 11 -104 30 -207 112 -254 202 -14 26 -25 44 -25 38z"/>
<path d="M8026 2715 c-3 -8 -1 -15 4 -15 6 0 10 7 10 15 0 8 -2 15 -4 15 -2 0
-6 -7 -10 -15z"/>
<path d="M8016 2674 c-4 -10 -1 -14 6 -12 15 5 23 28 10 28 -5 0 -13 -7 -16
-16z"/>
<path d="M7900 2611 c0 -25 6 -27 13 -6 4 8 2 17 -3 20 -6 4 -10 -3 -10 -14z"/>
<path d="M6565 2560 c-3 -5 -2 -10 4 -10 5 0 13 5 16 10 3 6 2 10 -4 10 -5 0
-13 -4 -16 -10z"/>
<path d="M7590 2541 c0 -6 4 -13 10 -16 6 -3 7 1 4 9 -7 18 -14 21 -14 7z"/>
<path d="M8295 2525 c-22 -14 -36 -25 -31 -25 10 0 76 40 76 46 0 6 -2 5 -45
-21z"/>
<path d="M6567 2508 c2 -5 13 -8 23 -8 10 0 21 3 23 8 3 4 -8 7 -23 7 -15 0
-26 -3 -23 -7z"/>
<path d="M7590 2500 c-9 -6 -10 -10 -3 -10 6 0 15 5 18 10 8 12 4 12 -15 0z"/>
<path d="M7516 2488 c3 -4 14 -8 24 -8 10 0 21 4 24 8 3 5 -8 9 -24 9 -16 0
-27 -4 -24 -9z"/>
<path d="M8186 2483 c-4 -5 -353 -10 -774 -13 l-767 -6 765 1 c569 0 771 3
790 12 16 7 19 12 9 12 -9 1 -19 -2 -23 -6z"/>
</g>
</svg>
